<svg xmlns="http://www.w3.org/2000/svg" viewBox="0 0 64 64">
  <g fill="#fa7e91" stroke="#fff5f5" stroke-width="3.5" stroke-linejoin="round">
    <ellipse cx="23" cy="13" rx="7" ry="10" transform="rotate(-13 23 13)"/>
    <ellipse cx="41" cy="13" rx="7" ry="10" transform="rotate(13 41 13)"/>
    <ellipse cx="10" cy="28" rx="7" ry="9" transform="rotate(-27 10 28)"/>
    <ellipse cx="54" cy="28" rx="7" ry="9" transform="rotate(27 54 28)"/>
    <path d="M32 28c-6 0-9 5-13 10-4 4-8 7-8 12 0 6 5 9 10 8 5-1 7-4 11-4s6 3 11 4c5 1 10-2 10-8 0-5-4-8-8-12-4-5-7-10-13-10z"/>
  </g>
</svg>
